<?xml version="1.0" encoding="utf-8"?>
<!-- Uploaded to: SVG Repo, www.svgrepo.com, Generator: SVG Repo Mixer Tools -->
<svg fill="#000000" width="800px" height="800px" viewBox="0 0 32 32" version="1.1" xmlns="http://www.w3.org/2000/svg">
<title>shield-check</title>
<path d="M30.182 7.271c-5.226-1.407-9.805-3.424-13.985-6.022l0.219 0.127c-0.117-0.079-0.261-0.126-0.416-0.126s-0.299 0.047-0.419 0.128l0.003-0.002c-3.961 2.471-8.539 4.488-13.404 5.812l-0.362 0.084c-0.329 0.084-0.568 0.378-0.568 0.728 0 0.060 0.007 0.117 0.020 0.173l-0.001-0.005c0.212 0.923 5.312 22.583 14.73 22.583 9.42 0 14.518-21.66 14.73-22.583 0.012-0.051 0.019-0.109 0.019-0.169 0-0.349-0.239-0.643-0.563-0.726l-0.005-0.001zM16 29.25c-7.377 0-12.146-17.019-13.095-20.717 4.977-1.394 9.327-3.318 13.322-5.766l-0.227 0.13c3.768 2.319 8.118 4.243 12.729 5.548l0.367 0.089c-0.949 3.698-5.719 20.717-13.096 20.717zM11.654 17.043c-0.135-0.13-0.318-0.21-0.521-0.21-0.414 0-0.75 0.336-0.75 0.75 0 0.204 0.082 0.39 0.214 0.525l-0-0 2.438 2.42 0.015 0.006 0.007 0.015c0.13 0.122 0.306 0.197 0.499 0.197 0.199 0 0.38-0.080 0.512-0.21l-0 0 0.027-0.011 0.005-0.011 0.017-0.012 7.309-7.991c0.122-0.133 0.197-0.311 0.197-0.506 0-0.414-0.335-0.749-0.749-0.749-0.219 0-0.415 0.094-0.552 0.243l-0 0.001-6.783 7.415z"></path>
</svg>