<svg xmlns="http://www.w3.org/2000/svg" viewBox="0 0 500 500"><g id="freepik--background-simple--inject-4"><path d="M486.4,269.68c.09-1.07.17-2.14.31-3.21,1.5-11.5,8.48-97.87-100-206.51C270.07-56.79,142.63,74.34,120.61,108.62S92.18,195.54,75.19,160.9c-10.5-21.41,16.88-48.23-21.91-37-24.88,7.19-71.1,70.78-33.21,180s144.3,192.62,246.57,186.54c131.52-7.82,209-103.2,202.81-110.29s-55.13,14.07-44.37-.67C435.68,365,483.31,310.23,486.4,269.68Z" style="fill:#88A593"></path><path d="M486.4,269.68c.09-1.07.17-2.14.31-3.21,1.5-11.5,8.48-97.87-100-206.51C270.07-56.79,142.63,74.34,120.61,108.62S92.18,195.54,75.19,160.9c-10.5-21.41,16.88-48.23-21.91-37-24.88,7.19-71.1,70.78-33.21,180s144.3,192.62,246.57,186.54c131.52-7.82,209-103.2,202.81-110.29s-55.13,14.07-44.37-.67C435.68,365,483.31,310.23,486.4,269.68Z" style="fill:#fff;opacity:0.8"></path></g><g id="freepik--Clouds--inject-4"><path d="M171.74,62.11a30.25,30.25,0,0,1-1.59-2.6c-6.68-11.89-18.3-21.4-31.76-23.56-17.5-2.8-29,6.82-37.31,20.79A12.09,12.09,0,0,1,97.45,61c-8.34,5.27-18.31-3.36-24.86,8.52,1.65-3-13.06-5.24-14.62-5-6.18,1.17-11.09,5.78-17.8,6.54a21.72,21.72,0,0,0-5.34.92c-2.92,1.11-4.93,3.78-6.52,6.47l191.1.46c-4.46-6-9.56-11.76-16.2-15.18s-15.13-4-21.36.06c-1.25.81-2.44,1.83-3.91,2.08C175.35,66.36,173.33,64.42,171.74,62.11Z" style="fill:none;stroke:#263238;stroke-miterlimit:10"></path><path d="M308.74,37.7s-5.52-8.59-14.11-8.59-12.9,11-16,11.66-6.76-5.52-11.05-4.3-8.6,6.14-11.05,7.37-3.07-1.23-7.37,0-8.59,6.75-8.59,6.75-6.14-3.07-9.82-1.84a36.34,36.34,0,0,0-7.37,3.68h115.4s-3.68-11-9.82-11.66-12.28,3.68-14.12,3.68S308.74,37.7,308.74,37.7Z" style="fill:none;stroke:#263238;stroke-miterlimit:10"></path><path d="M342.92,163.4s-3.05-4.74-7.79-4.74-7.11,6.1-8.8,6.44-3.72-3-6.09-2.37-4.74,3.38-6.1,4.06-1.69-.68-4.06,0-4.74,3.72-4.74,3.72-3.39-1.69-5.42-1a19.61,19.61,0,0,0-4.06,2h63.65s-2-6.1-5.42-6.43-6.77,2-7.78,2S342.92,163.4,342.92,163.4Z" style="fill:none;stroke:#263238;stroke-miterlimit:10"></path></g><g id="freepik--Roof--inject-4"><rect x="16.09" y="440.85" width="468.04" height="49.03" style="fill:#88A593"></rect><rect x="16.09" y="440.85" width="468.04" height="17.63" style="fill:#263238"></rect><line x1="16.09" y1="233.11" x2="485.39" y2="233.11" style="fill:none;stroke:#263238;stroke-miterlimit:10"></line><line x1="44.92" y1="241.7" x2="485.39" y2="241.7" style="fill:none;stroke:#263238;stroke-miterlimit:10"></line><line x1="16.09" y1="241.7" x2="36.56" y2="241.7" style="fill:none;stroke:#263238;stroke-miterlimit:10"></line><path d="M16.09,252.36c3.17,0,3.17,2,6.34,2s3.17-2,6.34-2,3.17,2,6.34,2,3.17-2,6.34-2,3.17,2,6.34,2,3.17-2,6.34-2,3.17,2,6.34,2,3.16-2,6.33-2,3.17,2,6.34,2,3.17-2,6.34-2,3.17,2,6.34,2,3.17-2,6.34-2,3.17,2,6.34,2,3.17-2,6.34-2,3.17,2,6.34,2,3.17-2,6.34-2,3.17,2,6.34,2,3.17-2,6.34-2,3.17,2,6.34,2,3.17-2,6.34-2,3.17,2,6.34,2,3.17-2,6.35-2,3.17,2,6.34,2,3.17-2,6.34-2,3.17,2,6.34,2,3.17-2,6.34-2,3.17,2,6.34,2,3.17-2,6.34-2,3.17,2,6.34,2,3.17-2,6.34-2,3.18,2,6.35,2,3.17-2,6.34-2,3.17,2,6.34,2,3.17-2,6.34-2,3.17,2,6.34,2,3.17-2,6.34-2,3.18,2,6.35,2,3.17-2,6.34-2,3.17,2,6.34,2,3.17-2,6.34-2,3.17,2,6.34,2,3.18-2,6.35-2,3.16,2,6.33,2,3.17-2,6.34-2,3.17,2,6.35,2,3.17-2,6.33-2,3.17,2,6.34,2,3.17-2,6.34-2,3.17,2,6.35,2,3.17-2,6.34-2,3.17,2,6.34,2,3.17-2,6.34-2,3.17,2,6.34,2,3.17-2,6.34-2,3.17,2,6.35,2,3.17-2,6.34-2,3.17,2,6.34,2,3.17-2,6.35-2,3.17,2,6.34,2,3.17-2,6.34-2,3.18,2,6.35,2,3.17-2,6.34-2,3.18,2,6.35,2,3.17-2,6.34-2,3.17,2,6.34,2,3.18-2,6.35-2,3.17,2,6.34,2,3.18-2,6.35-2,3.17,2,6.35,2,3.17-2,6.34-2,3.18,2,6.35,2,3.17-2,6.35-2,3.17,2,6.35,2,3.18-2,6.35-2" style="fill:none;stroke:#263238;stroke-miterlimit:10"></path><path d="M16.09,280c3.17,0,3.17,2,6.34,2s3.17-2,6.34-2,3.17,2,6.34,2,3.17-2,6.34-2,3.17,2,6.34,2,3.17-2,6.34-2,3.17,2,6.34,2,3.16-2,6.33-2,3.17,2,6.34,2,3.17-2,6.34-2,3.17,2,6.34,2,3.17-2,6.34-2,3.17,2,6.34,2,3.17-2,6.34-2,3.17,2,6.34,2,3.17-2,6.34-2,3.17,2,6.34,2,3.17-2,6.34-2,3.17,2,6.34,2,3.17-2,6.34-2,3.17,2,6.34,2,3.17-2,6.35-2,3.17,2,6.34,2,3.17-2,6.34-2,3.17,2,6.34,2,3.17-2,6.34-2,3.17,2,6.34,2,3.17-2,6.34-2,3.17,2,6.34,2,3.17-2,6.34-2,3.18,2,6.35,2,3.17-2,6.34-2,3.17,2,6.34,2,3.17-2,6.34-2,3.17,2,6.34,2,3.17-2,6.34-2,3.18,2,6.35,2,3.17-2,6.34-2,3.17,2,6.34,2,3.17-2,6.34-2,3.17,2,6.34,2,3.18-2,6.35-2,3.16,2,6.33,2,3.17-2,6.34-2,3.17,2,6.35,2,3.17-2,6.33-2,3.17,2,6.34,2,3.17-2,6.34-2,3.17,2,6.35,2,3.17-2,6.34-2,3.17,2,6.34,2,3.17-2,6.34-2,3.17,2,6.34,2,3.17-2,6.34-2,3.17,2,6.35,2,3.17-2,6.34-2,3.17,2,6.34,2,3.17-2,6.35-2,3.17,2,6.34,2,3.17-2,6.34-2,3.18,2,6.35,2,3.17-2,6.34-2,3.18,2,6.35,2,3.17-2,6.34-2,3.17,2,6.34,2,3.18-2,6.35-2,3.17,2,6.34,2,3.18-2,6.35-2,3.17,2,6.35,2,3.17-2,6.34-2,3.18,2,6.35,2,3.17-2,6.35-2,3.17,2,6.35,2,3.18-2,6.35-2" style="fill:none;stroke:#263238;stroke-miterlimit:10"></path><path d="M16.09,310.68c3.17,0,3.17,2,6.34,2s3.17-2,6.34-2,3.17,2,6.34,2,3.17-2,6.34-2,3.17,2,6.34,2,3.17-2,6.34-2,3.17,2,6.34,2,3.16-2,6.33-2,3.17,2,6.34,2,3.17-2,6.34-2,3.17,2,6.34,2,3.17-2,6.34-2,3.17,2,6.34,2,3.17-2,6.34-2,3.17,2,6.34,2,3.17-2,6.34-2,3.17,2,6.34,2,3.17-2,6.34-2,3.17,2,6.34,2,3.17-2,6.34-2,3.17,2,6.34,2,3.17-2,6.35-2,3.17,2,6.34,2,3.17-2,6.34-2,3.17,2,6.34,2,3.17-2,6.34-2,3.17,2,6.34,2,3.17-2,6.34-2,3.17,2,6.34,2,3.17-2,6.34-2,3.18,2,6.35,2,3.17-2,6.34-2,3.17,2,6.34,2,3.17-2,6.34-2,3.17,2,6.34,2,3.17-2,6.34-2,3.18,2,6.35,2,3.17-2,6.34-2,3.17,2,6.34,2,3.17-2,6.34-2,3.17,2,6.34,2,3.18-2,6.35-2,3.16,2,6.33,2,3.17-2,6.34-2,3.17,2,6.35,2,3.17-2,6.33-2,3.17,2,6.34,2,3.17-2,6.34-2,3.17,2,6.35,2,3.17-2,6.34-2,3.17,2,6.34,2,3.17-2,6.34-2,3.17,2,6.34,2,3.17-2,6.34-2,3.17,2,6.35,2,3.17-2,6.34-2,3.17,2,6.34,2,3.17-2,6.35-2,3.17,2,6.34,2,3.17-2,6.34-2,3.18,2,6.35,2,3.17-2,6.34-2,3.18,2,6.35,2,3.17-2,6.34-2,3.17,2,6.34,2,3.18-2,6.35-2,3.17,2,6.34,2,3.18-2,6.35-2,3.17,2,6.35,2,3.17-2,6.34-2,3.18,2,6.35,2,3.17-2,6.35-2,3.17,2,6.35,2,3.18-2,6.35-2" style="fill:none;stroke:#263238;stroke-miterlimit:10"></path><path d="M16.09,346.28c3.17,0,3.17,2,6.34,2s3.17-2,6.34-2,3.17,2,6.34,2,3.17-2,6.34-2,3.17,2,6.34,2,3.17-2,6.34-2,3.17,2,6.34,2,3.16-2,6.33-2,3.17,2,6.34,2,3.17-2,6.34-2,3.17,2,6.34,2,3.17-2,6.34-2,3.17,2,6.34,2,3.17-2,6.34-2,3.17,2,6.34,2,3.17-2,6.34-2,3.17,2,6.34,2,3.17-2,6.34-2,3.17,2,6.34,2,3.17-2,6.34-2,3.17,2,6.34,2,3.17-2,6.35-2,3.17,2,6.34,2,3.17-2,6.34-2,3.17,2,6.34,2,3.17-2,6.34-2,3.17,2,6.34,2,3.17-2,6.34-2,3.17,2,6.34,2,3.17-2,6.34-2,3.18,2,6.35,2,3.17-2,6.34-2,3.17,2,6.34,2,3.17-2,6.34-2,3.17,2,6.34,2,3.17-2,6.34-2,3.18,2,6.35,2,3.17-2,6.34-2,3.17,2,6.34,2,3.17-2,6.34-2,3.17,2,6.34,2,3.18-2,6.35-2,3.16,2,6.33,2,3.17-2,6.34-2,3.17,2,6.35,2,3.17-2,6.33-2,3.17,2,6.34,2,3.17-2,6.34-2,3.17,2,6.35,2,3.17-2,6.34-2,3.17,2,6.34,2,3.17-2,6.34-2,3.17,2,6.34,2,3.17-2,6.34-2,3.17,2,6.35,2,3.17-2,6.34-2,3.17,2,6.34,2,3.17-2,6.35-2,3.17,2,6.34,2,3.17-2,6.34-2,3.18,2,6.35,2,3.17-2,6.34-2,3.18,2,6.35,2,3.17-2,6.34-2,3.17,2,6.34,2,3.18-2,6.35-2,3.17,2,6.34,2,3.18-2,6.35-2,3.17,2,6.35,2,3.17-2,6.34-2,3.18,2,6.35,2,3.17-2,6.35-2,3.17,2,6.35,2,3.18-2,6.35-2" style="fill:none;stroke:#263238;stroke-miterlimit:10"></path><path d="M16.09,392.32c3.17,0,3.17,2,6.34,2s3.17-2,6.34-2,3.17,2,6.34,2,3.17-2,6.34-2,3.17,2,6.34,2,3.17-2,6.34-2,3.17,2,6.34,2,3.16-2,6.33-2,3.17,2,6.34,2,3.17-2,6.34-2,3.17,2,6.34,2,3.17-2,6.34-2,3.17,2,6.34,2,3.17-2,6.34-2,3.17,2,6.34,2,3.17-2,6.34-2,3.17,2,6.34,2,3.17-2,6.34-2,3.17,2,6.34,2,3.17-2,6.34-2,3.17,2,6.34,2,3.17-2,6.35-2,3.17,2,6.34,2,3.17-2,6.34-2,3.17,2,6.34,2,3.17-2,6.34-2,3.17,2,6.34,2,3.17-2,6.34-2,3.17,2,6.34,2,3.17-2,6.34-2,3.18,2,6.35,2,3.17-2,6.34-2,3.17,2,6.34,2,3.17-2,6.34-2,3.17,2,6.34,2,3.17-2,6.34-2,3.18,2,6.35,2,3.17-2,6.34-2,3.17,2,6.34,2,3.17-2,6.34-2,3.17,2,6.34,2,3.18-2,6.35-2,3.16,2,6.33,2,3.17-2,6.34-2,3.17,2,6.35,2,3.17-2,6.33-2,3.17,2,6.34,2,3.17-2,6.34-2,3.17,2,6.35,2,3.17-2,6.34-2,3.17,2,6.34,2,3.17-2,6.34-2,3.17,2,6.34,2,3.17-2,6.34-2,3.17,2,6.35,2,3.17-2,6.34-2,3.17,2,6.34,2,3.17-2,6.35-2,3.17,2,6.34,2,3.17-2,6.34-2,3.18,2,6.35,2,3.17-2,6.34-2,3.18,2,6.35,2,3.17-2,6.34-2,3.17,2,6.34,2,3.18-2,6.35-2,3.17,2,6.34,2,3.18-2,6.35-2,3.17,2,6.35,2,3.17-2,6.34-2,3.18,2,6.35,2,3.17-2,6.35-2,3.17,2,6.35,2,3.18-2,6.35-2" style="fill:none;stroke:#263238;stroke-miterlimit:10"></path><line x1="16.09" y1="440.85" x2="485.39" y2="440.85" style="fill:none;stroke:#263238;stroke-miterlimit:10"></line><line x1="464.14" y1="428.58" x2="485.39" y2="428.58" style="fill:none;stroke:#263238;stroke-miterlimit:10"></line><line x1="90.57" y1="428.58" x2="457.29" y2="428.58" style="fill:none;stroke:#263238;stroke-miterlimit:10"></line><line x1="16.09" y1="428.58" x2="80.68" y2="428.58" style="fill:none;stroke:#263238;stroke-miterlimit:10"></line></g><g id="freepik--Tree--inject-4"><path d="M223.53,232.83l9.3-9.94-11,1.09,14.77-23.1s-2.55-5.34-9.83-11c-2.61,1-5.1,1.9-5.78,2.12-1.23.39-1-4.09-1.54-6.88-.85-.46-1.73-.91-2.65-1.34-1.16,1.1-2.48,3-3.62,3.57-1.64.78-.33-2.11-.06-5.18a69.54,69.54,0,0,0-9.16-2.94c-9.72-2.43-18-3.3-25.43-2.65a9.57,9.57,0,0,1-3.42,3.28c-1.31.53-3.61-.64-6.62-1.33-7.64,2.38-14.53,6.72-21.53,13a38.58,38.58,0,0,0-7.42,9.32c.24,2.68,3.51,4.54,3.25,6-.3,1.6-5.18-.46-5.18-.46l-.65-.49c-4.6,10.21-6.16,21.34-6.68,27Z" style="fill:#88A593"></path><path d="M156.12,225.89a25.33,25.33,0,0,0-5.62-.88c-1.85.12-4.51,2.14-4.51,2.14a14.21,14.21,0,0,0,4.41,1.27C152.58,228.59,156.12,225.89,156.12,225.89Z" style="fill:#fff"></path><path d="M164.92,232.83c.36-.25.58-.42.58-.42a25.22,25.22,0,0,0-5.62-.88,8.24,8.24,0,0,0-3.25,1.3Z" style="fill:#fff"></path><path d="M161,212.53a25.62,25.62,0,0,0-5-2.77c-1.78-.53-5,.45-5,.45a14.4,14.4,0,0,0,3.7,2.72C156.75,213.84,161,212.53,161,212.53Z" style="fill:#fff"></path><path d="M173,221.05a25.47,25.47,0,0,0-5-2.77c-1.77-.53-5,.46-5,.46a14.28,14.28,0,0,0,3.7,2.71C168.73,222.36,173,221.05,173,221.05Z" style="fill:#fff"></path><path d="M189.1,222.87a25.62,25.62,0,0,0-5-2.77c-1.78-.52-5,.46-5,.46a14.23,14.23,0,0,0,3.7,2.71C184.85,224.18,189.1,222.87,189.1,222.87Z" style="fill:#fff"></path><path d="M170.18,203.36a25.68,25.68,0,0,0-3-4.82c-1.3-1.32-4.57-2-4.57-2a14.29,14.29,0,0,0,1.94,4.16C165.82,202.46,170.18,203.36,170.18,203.36Z" style="fill:#fff"></path><path d="M186,196.62a25.68,25.68,0,0,0,.15-5.69c-.36-1.82-2.71-4.19-2.71-4.19a14.39,14.39,0,0,0-.68,4.54C182.87,193.46,186,196.62,186,196.62Z" style="fill:#fff"></path><path d="M183.56,212.85a25.09,25.09,0,0,0-1.3-5.54c-.8-1.67-3.68-3.37-3.68-3.37a14.28,14.28,0,0,0,.49,4.56C179.73,210.58,183.56,212.85,183.56,212.85Z" style="fill:#fff"></path><path d="M199.6,200.29a25.45,25.45,0,0,0,3-4.87c.59-1.76-.27-5-.27-5a14.07,14.07,0,0,0-2.85,3.6C198.45,196,199.6,200.29,199.6,200.29Z" style="fill:#fff"></path><path d="M211.9,208.45a25.59,25.59,0,0,0,4.85-3c1.33-1.29,2-4.55,2-4.55a14.35,14.35,0,0,0-4.18,1.9C212.84,204.1,211.9,208.45,211.9,208.45Z" style="fill:#fff"></path><path d="M199.35,214.39a25.37,25.37,0,0,0,4.85-3c1.32-1.29,2-4.56,2-4.56a14.22,14.22,0,0,0-4.18,1.91C200.29,210,199.35,214.39,199.35,214.39Z" style="fill:#fff"></path><path d="M212.28,222.61a25.44,25.44,0,0,0,5.52-1.39c1.66-.83,3.31-3.73,3.31-3.73a14,14,0,0,0-4.55.56C214.49,218.74,212.28,222.61,212.28,222.61Z" style="fill:#fff"></path><path d="M159.58,182.84s4.13-4.74,0-12.83c0,0-10.2,6.82-9.33,5.6a105.69,105.69,0,0,0,5.35-10.28,2.59,2.59,0,0,0,0-1.2,40.22,40.22,0,0,0-3.9-4c-2.14,1.63-5.26,3.89-4.87,2.83.27-.72,1.13-3,2-5.19-.65-.48-1-.73-1-.73L110.5,202.69Z" style="fill:#88A593"></path><path d="M131.39,232.83l.46-26-7.44,8.19-4.52-27s-5.48-2.27-14.69-1.6c-1.28,2.48-2.51,4.83-2.86,5.45-.66,1.12-3.5-2.35-5.76-4.07-.93.22-1.89.48-2.87.77-.12,1.6.19,3.92-.29,5.08-.69,1.69-1.66-1.34-3.52-3.8a69.91,69.91,0,0,0-8.76,4c-8.84,4.72-15.57,9.62-20.65,15.08a9.77,9.77,0,0,1-.33,4.73c-.62,1.27-3.11,1.94-5.81,3.45a51.54,51.54,0,0,0-5.94,15.75Z" style="fill:#88A593"></path><path d="M79.49,218.77a25.39,25.39,0,0,0-3.7-4.32c-1.49-1.11-4.82-1.29-4.82-1.29A14.27,14.27,0,0,0,73.5,217C75.05,218.53,79.49,218.77,79.49,218.77Z" style="fill:#fff"></path><path d="M88.56,232.45a25.32,25.32,0,0,0-4.68-3.24c-1.71-.7-5,0-5,0a14.48,14.48,0,0,0,3.42,3.07C84.2,233.34,88.56,232.45,88.56,232.45Z" style="fill:#fff"></path><path d="M92,212.37A25.15,25.15,0,0,0,91,206.79c-.73-1.7-3.54-3.52-3.54-3.52a14.23,14.23,0,0,0,.31,4.58C88.3,210,92,212.37,92,212.37Z" style="fill:#fff"></path><path d="M106.64,210.19a25.52,25.52,0,0,0,1.59-5.47c.12-1.85-1.54-4.74-1.54-4.74a14.25,14.25,0,0,0-1.83,4.21C104.42,206.33,106.64,210.19,106.64,210.19Z" style="fill:#fff"></path><path d="M101.31,223a25.37,25.37,0,0,0,1.59-5.46c.13-1.85-1.54-4.74-1.54-4.74A14.21,14.21,0,0,0,99.54,217C99.09,219.15,101.31,223,101.31,223Z" style="fill:#fff"></path><path d="M116.41,220.44a25.52,25.52,0,0,0,3.17-4.73c.67-1.73,0-5,0-5a14.25,14.25,0,0,0-3,3.47C115.46,216.09,116.41,220.44,116.41,220.44Z" style="fill:#fff"></path><path d="M143.49,153.74s-2.63-6.56-10.88-13.88c-3.18,1-6.22,1.89-7,2.09-1.5.38-.91-4.95-1.32-8.31-1-.61-2-1.21-3-1.8-1.47,1.22-3.19,3.43-4.59,4-2,.81-.23-2.53.32-6.17a83.64,83.64,0,0,0-10.69-4.2c-11.4-3.62-21.2-5.28-30.1-5.07-1.2,1.48-2.82,3.16-4.31,3.66S67.58,123,64,122c-9.28,2.26-17.82,6.91-26.63,13.87a45.91,45.91,0,0,0-9.54,10.55c.08,3.21,3.83,5.67,3.41,7.37-.47,1.88-6.13-.94-6.13-.94l-.74-.63c-8.82,16.67-10.57,36-10.57,36l81.09,12.25s-26.88,1.89-24.05,2.83,42.43-.94,42.43-.94l24.05-22.63-13.2.47Z" style="fill:#88A593"></path><path d="M45.74,177.46S41.32,176,39.11,176s-5.53,2.21-5.53,2.21A16.78,16.78,0,0,0,38.74,180C41.32,180.41,45.74,177.46,45.74,177.46Z" style="fill:#fff"></path><path d="M56.43,185.94s-4.43-1.47-6.64-1.47-5.52,2.21-5.52,2.21a17.07,17.07,0,0,0,5.16,1.84C52,188.89,56.43,185.94,56.43,185.94Z" style="fill:#fff"></path><path d="M52.56,161.91s-3.64-2.91-5.71-3.67-6,.17-6,.17a17.08,17.08,0,0,0,4.2,3.51C47.4,163.15,52.56,161.91,52.56,161.91Z" style="fill:#fff"></path><path d="M66.2,173s-3.64-2.91-5.72-3.67-5.95.17-5.95.17A17,17,0,0,0,58.74,173C61,174.21,66.2,173,66.2,173Z" style="fill:#fff"></path><path d="M85.26,176.35s-3.64-2.91-5.72-3.67-6,.17-6,.17a17,17,0,0,0,4.21,3.51C80.09,177.59,85.26,176.35,85.26,176.35Z" style="fill:#fff"></path><path d="M64.18,151.68s-1.79-4.3-3.24-6S55.65,143,55.65,143a17,17,0,0,0,2,5.1C59.06,150.28,64.18,151.68,64.18,151.68Z" style="fill:#fff"></path><path d="M83.55,144.84s.89-4.57.6-6.76-2.91-5.2-2.91-5.2a17,17,0,0,0-1.16,5.36C80.05,140.84,83.55,144.84,83.55,144.84Z" style="fill:#fff"></path><path d="M79.41,164s-.29-4.65-1.13-6.7S74.16,153,74.16,153a17,17,0,0,0,.23,5.48C75,161,79.41,164,79.41,164Z" style="fill:#fff"></path><path d="M99.47,150.24s3-3.53,3.88-5.58.05-5.95.05-5.95a17.11,17.11,0,0,0-3.66,4.07C98.42,145,99.47,150.24,99.47,150.24Z" style="fill:#fff"></path><path d="M113.51,160.89s4.32-1.76,6-3.19,2.76-5.28,2.76-5.28a17,17,0,0,0-5.12,2C115,155.77,113.51,160.89,113.51,160.89Z" style="fill:#fff"></path><path d="M98.11,167s4.31-1.75,6-3.19,2.77-5.27,2.77-5.27a17.15,17.15,0,0,0-5.12,1.95C99.55,161.91,98.11,167,98.11,167Z" style="fill:#fff"></path><path d="M112.89,177.78s4.65-.37,6.69-1.23,4.22-4.19,4.22-4.19a17.13,17.13,0,0,0-5.47.31C115.81,173.34,112.89,177.78,112.89,177.78Z" style="fill:#fff"></path><polygon points="107.66 201.36 123.21 232.47 73.71 215.03 113.83 232.83 133.36 232.83 122.74 215.5 116.29 205.28 133.81 185.57 114.03 201.71 88.8 161.75 107.18 196.64 60.98 184.38 107.66 201.36" style="fill:#263238;stroke:#263238;stroke-linecap:round;stroke-linejoin:round"></polygon></g><g id="freepik--Fireplace--inject-4"><rect x="385.31" y="49.14" width="11.89" height="30.66" style="fill:#9e9e9e;stroke:#263238;stroke-miterlimit:10"></rect><polygon points="399.23 39.96 378.88 39.96 381.38 30.58 397.66 30.58 399.23 39.96" style="fill:#696969;stroke:#263238;stroke-miterlimit:10"></polygon><polygon points="403.9 39.96 383.56 39.96 385.12 30.58 401.4 30.58 403.9 39.96" style="fill:#9e9e9e;stroke:#263238;stroke-miterlimit:10"></polygon><polygon points="399.23 49.33 378.88 49.33 381.38 39.94 397.66 39.94 399.23 49.33" style="fill:#696969;stroke:#263238;stroke-miterlimit:10"></polygon><polygon points="403.9 49.33 383.56 49.33 385.12 39.94 401.4 39.94 403.9 49.33" style="fill:#9e9e9e;stroke:#263238;stroke-miterlimit:10"></polygon><rect x="438.3" y="49.14" width="11.89" height="30.66" style="fill:#9e9e9e;stroke:#263238;stroke-miterlimit:10"></rect><polygon points="452.22 39.96 431.87 39.96 434.37 30.58 450.65 30.58 452.22 39.96" style="fill:#696969;stroke:#263238;stroke-miterlimit:10"></polygon><polygon points="456.89 39.96 436.55 39.96 438.11 30.58 454.39 30.58 456.89 39.96" style="fill:#9e9e9e;stroke:#263238;stroke-miterlimit:10"></polygon><polygon points="452.22 49.33 431.87 49.33 434.37 39.94 450.65 39.94 452.22 49.33" style="fill:#696969;stroke:#263238;stroke-miterlimit:10"></polygon><polygon points="456.89 49.33 436.55 49.33 438.11 39.94 454.39 39.94 456.89 49.33" style="fill:#9e9e9e;stroke:#263238;stroke-miterlimit:10"></polygon><rect x="367.76" y="81.68" width="105.12" height="220.89" style="fill:#88A593;stroke:#263238;stroke-miterlimit:10"></rect><polygon points="353.36 281.23 367.76 302.56 367.76 81.68 353.36 81.68 353.36 281.23" style="fill:#88A593;stroke:#263238;stroke-miterlimit:10"></polygon><rect x="347.11" y="72.29" width="131.41" height="16.27" style="fill:#696969;stroke:#263238;stroke-miterlimit:10"></rect><rect x="361.83" y="72.29" width="116.69" height="16.27" style="fill:#9e9e9e;stroke:#263238;stroke-miterlimit:10"></rect><g style="opacity:0.15"><rect x="372.45" y="97.01" width="20.47" height="10.82" rx="0.77"></rect><rect x="372.45" y="127.32" width="20.47" height="10.82" rx="0.77"></rect><rect x="383.65" y="110.92" width="20.47" height="10.82" rx="0.77"></rect></g><g style="opacity:0.2"><rect x="355.71" y="97.01" width="6.31" height="10.82" rx="0.77"></rect><rect x="355.71" y="127.32" width="6.31" height="10.82" rx="0.77"></rect><rect x="359.16" y="110.92" width="6.31" height="10.82" rx="0.77"></rect></g><g style="opacity:0.14"><rect x="405.69" y="151.03" width="20.47" height="10.82" rx="0.77"></rect><rect x="405.69" y="181.34" width="20.47" height="10.82" rx="0.77"></rect><rect x="416.89" y="164.94" width="20.47" height="10.82" rx="0.77"></rect></g><g style="opacity:0.15"><rect x="379.63" y="248.5" width="20.47" height="10.82" rx="0.77"></rect><rect x="379.63" y="278.81" width="20.47" height="10.82" rx="0.77"></rect><rect x="390.83" y="262.41" width="20.47" height="10.82" rx="0.77"></rect></g><g style="opacity:0.15"><rect x="433.87" y="97.01" width="20.47" height="10.82" rx="0.77"></rect><rect x="433.87" y="124.97" width="20.47" height="10.82" rx="0.77"></rect><rect x="422.18" y="110.92" width="20.47" height="10.82" rx="0.77"></rect><rect x="444.85" y="110.92" width="20.47" height="10.82" rx="0.77"></rect></g><g style="opacity:0.2"><path d="M362,174.69l-3-.71a1,1,0,0,1-.77-.95v-9.28a.59.59,0,0,1,.77-.58l3,.7a1,1,0,0,1,.77.95v9.28A.59.59,0,0,1,362,174.69Z"></path><path d="M362,202.64l-3-.7a1,1,0,0,1-.77-1v-9.27a.59.59,0,0,1,.77-.59l3,.71a1,1,0,0,1,.77.95v9.27A.59.59,0,0,1,362,202.64Z"></path><path d="M359.44,188l-3-.7a1,1,0,0,1-.78-1v-9.27a.6.6,0,0,1,.78-.59l3,.71a1,1,0,0,1,.77,1v9.27A.59.59,0,0,1,359.44,188Z"></path><path d="M364.44,189.16l-3-.7a1,1,0,0,1-.77-1v-9.28a.58.58,0,0,1,.77-.58l3,.7a1,1,0,0,1,.77,1v9.28A.58.58,0,0,1,364.44,189.16Z"></path></g><g style="opacity:0.15"><rect x="433.87" y="209.59" width="20.47" height="10.82" rx="0.77"></rect><rect x="433.87" y="237.54" width="20.47" height="10.82" rx="0.77"></rect><rect x="422.18" y="223.49" width="20.47" height="10.82" rx="0.77"></rect><rect x="444.85" y="223.49" width="20.47" height="10.82" rx="0.77"></rect></g></g><g id="freepik--Character--inject-4"><path d="M243.57,339.07s6.15,8.06,8.7,9.12L268,354.76s5.09.43,5.31,3.82,0,5.94-9.76,6.37-30.55-.64-31.18-.64-10.19-.85-13.16-2.33,1.07-15.49,1.49-18.67,3.61-8.49,3.61-8.49Z" style="fill:#88A593;stroke:#263238;stroke-miterlimit:10"></path><path d="M252.27,348.19c-2.55-1.06-8.7-9.12-8.7-9.12l-.49-.11-.73,1.07s6.9,10.1,9.76,11.61c1.72.91,3.85-.24,5.29-1.3Z" style="fill:#263238;stroke:#263238;stroke-miterlimit:10"></path><path d="M268.6,361.76c-3.18.85-12.63,2.37-20.27-.32-6.48-2.27-24.29-2.52-30.21-3.75-.11,2.17.14,3.83,1,4.29,3,1.48,12.52,2.33,13.16,2.33s21.42,1.06,31.18.64,10-3,9.76-6.37A8.35,8.35,0,0,1,268.6,361.76Z" style="fill:#fff;stroke:#263238;stroke-miterlimit:10"></path><path d="M235.93,285.61l-6.15,30.33-8.91,21,31.82,4.87,3.39-20.15s8.91-32.45,9.76-35.21-3.18-12.3-8.48-15.06-15.49,2.12-17.61,4.24S235.93,285.61,235.93,285.61Z" style="fill:#263238;stroke:#263238;stroke-miterlimit:10"></path><path d="M255.43,209.69s-2.12-1.74-8.48-2.9-15-5-27.4-1-42.05,21.8-57.48,36.07S148,257,148.38,258.68s27,5.21,49.18,7.72,31.45,6.94,39,9.07,21.41.57,21.41.57l2.51,6L283.21,284s0-14.46-3.28-24.88a181.19,181.19,0,0,0-8.27-21.9c-1.18-2.21-7.35-14.94-9.86-19.57A31.16,31.16,0,0,0,255.43,209.69Z" style="fill:#fff;stroke:#263238;stroke-miterlimit:10"></path><path d="M201.1,221.08s3.09,8.18,6,12.54" style="fill:none;stroke:#263238;stroke-miterlimit:10"></path><path d="M195.48,234.55a49.59,49.59,0,0,0,11.8,9.25" style="fill:none;stroke:#263238;stroke-miterlimit:10"></path><path d="M190,227.63a38,38,0,0,0,3.36,4.57" style="fill:none;stroke:#263238;stroke-miterlimit:10"></path><line x1="257.94" y1="276.04" x2="275.26" y2="271.43" style="fill:none;stroke:#263238;stroke-miterlimit:10"></line><line x1="259.09" y1="276.16" x2="270.36" y2="275.25" style="fill:none;stroke:#263238;stroke-miterlimit:10"></line><path d="M251.27,235.44s-.18,16,3.27,19.81" style="fill:none;stroke:#263238;stroke-miterlimit:10"></path><path d="M84.45,359.21s-18.26-7.38-20.51-7.7-6.73.65-8,2.57-3.2,9-3.2,9-8,8.65-8.66,17.95,0,17.62,2.25,19.55,6.09.32,8.33-2.89,7.69-11.21,10.25-14.74,11.86-4.17,11.86-4.17Z" style="fill:#88A593;stroke:#263238;stroke-miterlimit:10"></path><path d="M72.76,378.66s-2.06-4.38-7-1.55-7.74,7.48-9.8,11.61c-1.68,3.35,0,4.49,2.28,3.69,2.35-3.41,5-7.31,6.62-9.49s5.32-3.14,8.22-3.68Z" style="fill:#263238;stroke:#263238;stroke-miterlimit:10"></path><path d="M63.84,351.5c-2.27-.28-6.65.68-7.91,2.58s-3.2,9-3.2,9-8,8.65-8.66,17.95,0,17.45,2.18,19.48c-.91-6.51-1-18.26,1.67-24.61,3.52-8.33,8.33-11.54,11.86-18.27C62.59,352.23,63.56,351.56,63.84,351.5Z" style="fill:#fff;stroke:#263238;stroke-miterlimit:10"></path><path d="M322.5,361.22s5,2.94,5.34,4.42a28.82,28.82,0,0,1,.37,5.15c0,.55-3.13,2.21-3.13,2.21Z" style="fill:none;stroke:#263238;stroke-miterlimit:10"></path><path d="M281.81,274.14s5.34,28.17,6.26,30.19,6.45,12,7.74,19.15,9.38,35.16,10.12,36.08,12.7-2,13.62-1.66,3.69,3.69,4.24,4.79a20.42,20.42,0,0,1,1.1,6.44c0,2,.92,4.42,0,5.34s-.73.92-1.84.37-2.76-7.18-2.76-7.73-1.29-1.29-2-1.29a9.88,9.88,0,0,0-3.13,1.47c-.56.37-4.79,3.87-8.1,3.69s-7.92-5.34-9-7.18-21-40.14-22.64-45.11-9.31-19.74-8.84-21.35-5-14.18-5-14.18S272.24,275.8,281.81,274.14Z" style="fill:#fff;stroke:#263238;stroke-miterlimit:10"></path><path d="M323.24,368.45c0,.22-.55.4-1.24.4s-1.25-.18-1.25-.4.56-.39,1.25-.39S323.24,368.23,323.24,368.45Z" style="fill:#263238;stroke:#263238;stroke-miterlimit:10"></path><line x1="322" y1="368.85" x2="322.25" y2="374.84" style="fill:#263238;stroke:#263238;stroke-miterlimit:10"></line><path d="M313.11,363.61s2,3.32,3.31,4.05,7.74,3.13,7.18,5.16-4.41,2-5.52,1.65a43.51,43.51,0,0,1-5-2.94,49,49,0,0,1-5.34-2,5.89,5.89,0,0,1-2.39-1.84" style="fill:#fff;stroke:#263238;stroke-miterlimit:10"></path><path d="M244.47,206.43s7.52,6.34,2.77,20-26.32,26.31-41.16,31.46-33.63,3.56-43.53.59-11.28-9.69-11.28-9.69S140,260.25,137.42,268.17s-4.94,22.36-1.58,34.62S140.59,321,140.59,321l9.18,35.29-68.37,2s-3.07,1.71-3.76,6.83-9.85,18.39-9.85,18.39,82.32,5.2,94.62,5.2,20.51-4.44,22.56-7.18,3.76-9.57,4.1-15.38-3.41-48.54-3.41-50.25,2.73-12.3,2.73-12.3l48.82-13.16L241,277.76s17.4-6.36,23.76-16.12,8.06-22.48,8.06-22.48l-1.69-4s-2.55,11-8.7,19.3a79.39,79.39,0,0,1-15.91,15.7c-2.55,1.9-3.61,2.75-3.61,2.75l-9.54-17.6s14.42-17.4,17-25.46,1.48-15.7.42-17.6a59,59,0,0,0-3.83-5.43Z" style="fill:#263238;stroke:#263238;stroke-miterlimit:10"></path><line x1="151.42" y1="359.65" x2="157.67" y2="377.14" style="fill:none;stroke:#fff;stroke-miterlimit:10"></line><path d="M152.36,366.83s-.62,11.87.31,13.43" style="fill:none;stroke:#fff;stroke-miterlimit:10"></path><path d="M177.05,288.82a30.61,30.61,0,0,1,3.42,5.24" style="fill:none;stroke:#fff;stroke-miterlimit:10"></path><path d="M157.67,267.2s10.3,10.47,17.18,18.85" style="fill:none;stroke:#fff;stroke-miterlimit:10"></path><path d="M174.22,279.07s9.37,15,10.62,18.42" style="fill:none;stroke:#fff;stroke-miterlimit:10"></path><path d="M308.53,217.18s-.89,6.8-3.31,8.65-3.81,2.15-4.2,3-.12,7.65-1,8.57-4.5-.31-5-.28-10.76,7.1-11.92,7.14a8.29,8.29,0,0,1-4.53-1.46c-1.23-1-6.91-5.66-6.91-5.66l-9.22,2.41s-1.84,9.69-3.43,9.22-8-14.72-4.06-25.13c2-5.3.48-14,.48-14s12.57-3.5,13.07-6.8-.23-6.26.85-7.95,12.19-3,21.79,1.71S308.91,215.65,308.53,217.18Z" style="fill:#fff;stroke:#263238;stroke-miterlimit:10"></path><path d="M301.89,211.76s-4.16,3.53-5.5,4.34-4.38-.12-5.81.34-2.34,1.53-3.3,1.45-3-1.57-2.92-2.69.7-4.72-.8-6.57-1.54-2.35-5.3-1.66-4.54,2.46-7.15,1.8-2.84-3.65-2.73-4.77,1.16-7.22,1-9.06,14.19-7.06,26.44.1,13.78,18,13.78,18Z" style="fill:#263238;stroke:#263238;stroke-miterlimit:10"></path><path d="M268.28,194.67s-2.66,6-2.43,7.06,6.8,3.51,8.45,3.43,6.65-5,6.65-5Z" style="fill:#fff;stroke:#263238;stroke-miterlimit:10"></path><path d="M265.05,193.69s4.82,4.4,7.6,5.09,4.76,1,10.22,4.62,31.77,24.81,31.77,24.81a14.18,14.18,0,0,0-.21-4.6,8.74,8.74,0,0,1-.47-3.53c-.06-1.61,3.43-8.25,3.86-14.51s-1-14.13-7-19.28-12.36-8.79-18.36-8.47a38.53,38.53,0,0,0-9.47,1.49,17,17,0,0,0-7.61,4,85.8,85.8,0,0,0-8.52,9.46S265.16,192.35,265.05,193.69Z" style="fill:#88A593;stroke:#263238;stroke-miterlimit:10"></path><path d="M313.65,196.47a16.07,16.07,0,0,1,1.23,7.22" style="fill:none;stroke:#263238;stroke-miterlimit:10"></path><path d="M291.88,180.17s8.09-.47,16.06,7.67a28.6,28.6,0,0,1,3.61,4.51" style="fill:none;stroke:#263238;stroke-miterlimit:10"></path><path d="M308.11,217.68c1.7,1.45,3.16,2.61,4.24,3.36" style="fill:none;stroke:#263238;stroke-miterlimit:10"></path><path d="M272.07,189.31s9.85,3.38,16.74,10.35c4.47,4.51,11.07,10.79,16.43,15.54" style="fill:none;stroke:#263238;stroke-miterlimit:10"></path><path d="M298.44,228.13c-.86.88-1.91,1.24-2.35.81s-.1-1.49.76-2.36,1.91-1.23,2.35-.81S299.29,227.26,298.44,228.13Z" style="fill:#263238"></path><path d="M298.69,223.21s3.72-.54,3.84,2.27" style="fill:none;stroke:#263238;stroke-miterlimit:10"></path><path d="M290.6,238.49s-2-1.65-2-5.72" style="fill:none;stroke:#263238;stroke-miterlimit:10"></path><path d="M277.63,221.19c-2.23-.23-3.84-4.23-2.76-8.53s5.58-5.95,5.58-5.95,1.34-.81,3.11,1.92-.05,9.3-.05,9.3" style="fill:#fff;stroke:#263238;stroke-miterlimit:10"></path><path d="M303.11,241.11A67.91,67.91,0,0,0,295,243.4a30.16,30.16,0,0,0-3.43,1.91s7.89-1.78,9.92-1.27,3.06,1.4,2.55,2.67-1.53,3.69-1.53,3.69l5.86,3.06s2.67-3.44,4.32-3.69,3.44,2.54,3.44,2.54l2.54-3.81s-3.18-1.28-3.56-2-.89-1.91-.89-1.91l-7.64-3.69A13.81,13.81,0,0,0,303.11,241.11Z" style="fill:#263238;stroke:#263238;stroke-miterlimit:10"></path><rect x="317.23" y="247.6" width="3.82" height="6.62" transform="translate(166.24 -125.16) rotate(29.7)" style="fill:#263238;stroke:#263238;stroke-miterlimit:10"></rect><path d="M302.47,250.4s-33.2,57.1-32.84,58a3.82,3.82,0,0,0,2.73,2c.91,0,6-.54,6.73-1.27S284,296.4,284,296.4l24.33-42.94Z" style="fill:#88A593;stroke:#263238;stroke-miterlimit:10"></path><path d="M209.31,218.71a268.75,268.75,0,0,0-9.43,40.36c-2.89,20.45-6,27.2,0,29.71s47.45,5.4,56.52,6,10.61,1,10.61,1,6.75,4.24,9.06,4.24,7.14-1.93,7.14-1.93,2.89,1.16,3.28,0a17.66,17.66,0,0,0,.58-3.08,5,5,0,0,0,2.31-2.12l.58-1.35s2.32-1.55,2.7-2.9a8.41,8.41,0,0,0,0-3.28s2.13-1.35,2.51-2.7a4.16,4.16,0,0,0-1.93-4.24c-1.35-.58-6.17-1.74-6.17-1.74l1.74-3.08a43.14,43.14,0,0,1-6.76,2.5,41.26,41.26,0,0,0-7.13,2.13c-2.51,1-7.14,3.66-8.49,3.85s-11.77-.57-15.05-1.73-16.39-5.79-21.22-7.91a63.63,63.63,0,0,1-8.1-4.24l16.59-29.33a21.6,21.6,0,0,0,4.18-3.24" style="fill:#fff;stroke:#263238;stroke-miterlimit:10"></path><line x1="288.98" y1="282.99" x2="292.66" y2="285.3" style="fill:none;stroke:#263238;stroke-miterlimit:10"></line><line x1="287.07" y1="287.44" x2="289.96" y2="291.48" style="fill:none;stroke:#263238;stroke-miterlimit:10"></line><path d="M285.42,292.28s2,1,1.65,2.67" style="fill:none;stroke:#263238;stroke-miterlimit:10"></path><path d="M210.71,211.46l-9,22.91,30.68,17.69,7-12s7.25-5.35,8.65-9.17,2.29-13.62.89-17.94a8.41,8.41,0,0,0-7-5.73" style="fill:#fff;stroke:#263238;stroke-miterlimit:10"></path></g></svg>
